<?xml version="1.0" encoding="utf-8"?>
<!-- Generator: Adobe Illustrator 16.0.0, SVG Export Plug-In . SVG Version: 6.00 Build 0)  -->
<!DOCTYPE svg PUBLIC "-//W3C//DTD SVG 1.1//EN" "http://www.w3.org/Graphics/SVG/1.1/DTD/svg11.dtd">
<svg version="1.1" xmlns="http://www.w3.org/2000/svg" xmlns:xlink="http://www.w3.org/1999/xlink" x="0px" y="0px"
	 width="778.461px" height="778.645px" viewBox="265.081 0 778.461 778.645" enable-background="new 265.081 0 778.461 778.645"
	 xml:space="preserve">
<g id="Layer_2">
	<g>
		<text transform="matrix(1 0 0 1 255.0132 338.5029)" fill="#F56A79" font-family="'Bahnschrift'" font-size="300">404</text>
		<text transform="matrix(1 0 0 1 265.2686 429.584)"><tspan x="0" y="0" fill="#F56A79" font-family="'Bahnschrift'" font-size="100">PAGE</tspan><tspan x="0" y="120" fill="#F56A79" font-family="'Bahnschrift'" font-size="100">NOT</tspan><tspan x="0" y="240" fill="#F56A79" font-family="'Bahnschrift'" font-size="100">FOUND</tspan></text>
	</g>
</g>
<g id="b7b1ce3f-9371-481d-b4de-9356facff7dd">
	<title>access_denied</title>
	<path fill="#002D40" d="M695.517,599.999v-2c3.977-0.001,8.013-0.083,11.998-0.242l0.08,1.998
		C703.583,599.916,699.52,599.998,695.517,599.999z M683.442,599.768c-3.998-0.156-8.055-0.396-12.057-0.711l0.157-1.994
		c3.977,0.314,8.006,0.552,11.978,0.707L683.442,599.768z M719.653,599.03l-0.16-1.994c3.969-0.317,7.986-0.721,11.938-1.198
		l0.24,1.986C727.692,598.305,723.649,598.711,719.653,599.03L719.653,599.03z M659.365,597.864
		c-3.987-0.478-8.012-1.041-11.962-1.675l0.317-1.975c3.924,0.63,7.922,1.189,11.883,1.663L659.365,597.864z M743.63,596.136
		l-0.319-1.975c3.922-0.634,7.894-1.359,11.803-2.154l0.398,1.959C751.577,594.768,747.579,595.498,743.63,596.136L743.63,596.136z
		 M635.518,594.033c-3.937-0.797-7.901-1.685-11.788-2.636l0.475-1.943c3.861,0.946,7.801,1.827,11.71,2.618L635.518,594.033z
		 M767.299,591.316l-0.479-1.941c3.872-0.953,7.771-1.997,11.59-3.104l0.557,1.922C775.123,589.307,771.197,590.357,767.299,591.316
		L767.299,591.316z M612.057,588.286c-3.856-1.113-7.737-2.318-11.536-3.581l0.632-1.898c3.772,1.256,7.628,2.453,11.459,3.559
		L612.057,588.286z M790.499,584.597l-0.634-1.896c3.774-1.262,7.577-2.618,11.3-4.033l0.711,1.869
		C798.127,581.961,794.299,583.328,790.499,584.597L790.499,584.597z M589.109,580.645c-3.752-1.422-7.531-2.941-11.234-4.519
		l0.784-1.84c3.677,1.566,7.432,3.076,11.159,4.487L589.109,580.645z M813.047,576.032l-0.785-1.84
		c3.656-1.562,7.328-3.217,10.91-4.921l0.859,1.807C820.424,572.793,816.729,574.461,813.047,576.032L813.047,576.032z
		 M566.836,571.157c-3.633-1.725-7.274-3.545-10.825-5.411l0.932-1.77c3.525,1.853,7.143,3.661,10.751,5.374L566.836,571.157z
		 M834.813,565.683l-0.932-1.77c3.521-1.854,7.051-3.802,10.486-5.789l1.002,1.73C841.911,561.855,838.358,563.816,834.813,565.683
		L834.813,565.683z M545.417,559.903c-3.484-2.015-6.966-4.122-10.346-6.264l1.07-1.689c3.357,2.128,6.814,4.221,10.277,6.223
		L545.417,559.903z M855.688,553.604l-1.07-1.689c3.352-2.124,6.715-4.35,9.992-6.616l1.137,1.645
		c-3.301,2.283-6.686,4.523-10.061,6.662L855.688,553.604z M524.988,546.967c-3.307-2.285-6.605-4.664-9.805-7.071l1.201-1.598
		c3.179,2.391,6.455,4.754,9.74,7.024L524.988,546.967z M875.536,539.883l-1.203-1.598c3.17-2.385,6.346-4.874,9.436-7.399
		l1.266,1.549c-3.111,2.542-6.309,5.048-9.5,7.448H875.536z M505.671,532.437c-3.105-2.537-6.201-5.172-9.203-7.831l1.326-1.496
		c2.982,2.641,6.058,5.26,9.143,7.779L505.671,532.437z M894.229,524.609l-1.326-1.496c2.98-2.641,5.947-5.378,8.818-8.135
		l1.385,1.443C900.215,519.197,897.229,521.951,894.229,524.609L894.229,524.609z M487.587,516.413
		c-2.885-2.771-5.759-5.645-8.543-8.539l1.441-1.387c2.766,2.876,5.621,5.73,8.488,8.482L487.587,516.413z M911.649,507.882
		l-1.441-1.387c2.758-2.867,5.496-5.833,8.143-8.816l1.496,1.328C917.182,502.01,914.424,504.996,911.649,507.882L911.649,507.882z
		 M470.851,499.004c-2.666-3.006-5.301-6.099-7.83-9.192l1.549-1.266c2.512,3.073,5.129,6.146,7.777,9.13L470.851,499.004z
		 M927.682,489.81l-1.549-1.266c2.527-3.09,5.021-6.268,7.414-9.444l1.598,1.203C932.737,483.5,930.225,486.699,927.682,489.81
		L927.682,489.81z M455.567,480.317c-2.41-3.2-4.788-6.491-7.065-9.783l1.645-1.139c2.263,3.271,4.624,6.54,7.019,9.719
		L455.567,480.317z M942.223,470.5l-1.645-1.137c2.271-3.285,4.504-6.654,6.635-10.014l1.689,1.07
		C946.756,463.803,944.51,467.193,942.223,470.5z M441.834,460.477c-2.144-3.379-4.247-6.848-6.255-10.313l1.73-1.003
		c1.994,3.441,4.084,6.888,6.213,10.244L441.834,460.477z M955.172,450.078l-1.73-1.003c2.002-3.46,3.955-7,5.809-10.521l1.77,0.932
		C959.155,443.03,957.188,446.594,955.172,450.078L955.172,450.078z M429.746,439.607c-1.863-3.538-3.68-7.164-5.4-10.777
		l1.805-0.859c1.71,3.589,3.516,7.19,5.365,10.705L429.746,439.607z M966.436,428.665l-1.807-0.859
		c1.713-3.602,3.375-7.289,4.941-10.961l1.84,0.785C969.834,421.326,968.161,425.039,966.436,428.665z M419.384,417.85
		c-1.575-3.684-3.093-7.441-4.512-11.17l1.869-0.711c1.41,3.702,2.917,7.436,4.481,11.094L419.384,417.85z M975.936,406.397
		l-1.869-0.709c1.418-3.741,2.777-7.555,4.037-11.333l1.896,0.633C978.733,398.793,977.364,402.631,975.936,406.397z
		 M410.806,395.305c-1.273-3.802-2.484-7.682-3.602-11.53l1.921-0.557c1.109,3.822,2.313,7.676,3.577,11.452L410.806,395.305z
		 M983.59,383.452l-1.922-0.555c1.104-3.816,2.146-7.716,3.098-11.592l1.941,0.477C985.75,375.685,984.702,379.611,983.59,383.452z
		 M404.074,372.107c-0.961-3.895-1.854-7.858-2.656-11.783l1.961-0.4c0.795,3.898,1.683,7.837,2.637,11.705L404.074,372.107z
		 M989.352,359.997l-1.961-0.398c0.791-3.896,1.514-7.867,2.148-11.804l1.975,0.318c-0.641,3.963-1.367,7.961-2.164,11.884H989.352z
		 M399.242,348.442c-0.641-3.948-1.211-7.972-1.695-11.959l1.986-0.24c0.48,3.961,1.047,7.957,1.684,11.879L399.242,348.442z
		 M993.194,336.149l-1.986-0.238c0.477-3.959,0.877-7.976,1.191-11.938l1.994,0.158
		C994.077,328.121,993.672,332.164,993.194,336.149L993.194,336.149z M396.334,324.467c-0.323-3.994-0.569-8.051-0.731-12.058
		l1.998-0.081c0.162,3.979,0.406,8.01,0.727,11.978L396.334,324.467z M995.112,312.076l-1.998-0.079
		c0.156-3.985,0.236-8.021,0.236-11.997v-0.663h2v0.658C995.35,304.001,995.27,308.063,995.112,312.076z M397.351,300.332h-2v-0.336
		c0-3.901,0.076-7.853,0.226-11.739l1.998,0.077c-0.148,3.861-0.224,7.786-0.224,11.666V300.332z M993.086,287.344
		c-0.164-3.971-0.414-8.001-0.74-11.977l1.994-0.163c0.328,4.002,0.578,8.059,0.744,12.057L993.086,287.344z M398.275,276.356
		l-1.994-0.156c0.314-4.005,0.715-8.049,1.188-12.021l1.986,0.236C398.984,268.361,398.587,272.379,398.275,276.356z
		 M991.129,263.431c-0.482-3.944-1.053-7.94-1.697-11.877l1.975-0.323c0.648,3.963,1.223,7.986,1.707,11.958L991.129,263.431z
		 M401.111,252.533l-1.975-0.316c0.633-3.96,1.356-7.959,2.15-11.886l1.959,0.396C402.458,244.627,401.74,248.599,401.111,252.533z
		 M987.256,239.754c-0.803-3.908-1.693-7.845-2.65-11.702l1.941-0.481c0.963,3.883,1.861,7.847,2.67,11.781L987.256,239.754z
		 M405.857,229.016l-1.943-0.475c0.951-3.893,1.996-7.82,3.105-11.675l1.922,0.553C407.839,221.248,406.802,225.149,405.857,229.016
		z M981.485,216.468c-1.113-3.82-2.32-7.672-3.59-11.449l1.896-0.637c1.277,3.802,2.492,7.68,3.613,11.526L981.485,216.468z
		 M412.494,205.959l-1.898-0.631c1.266-3.808,2.629-7.648,4.053-11.414l1.871,0.707C415.105,198.362,413.75,202.176,412.494,205.959
		z M973.842,193.725c-1.422-3.72-2.934-7.451-4.494-11.09l1.838-0.788c1.572,3.663,3.094,7.419,4.525,11.164L973.842,193.725z
		 M421,183.459l-1.841-0.783c1.572-3.695,3.242-7.41,4.963-11.04l1.807,0.856C424.22,176.099,422.562,179.789,421,183.459z
		 M964.409,171.732c-1.711-3.585-3.52-7.185-5.375-10.699l1.768-0.934c1.869,3.538,3.689,7.162,5.412,10.771L964.409,171.732z
		 M431.298,161.737l-1.771-0.929c1.865-3.553,3.828-7.119,5.837-10.598l1.732,1C435.101,154.667,433.15,158.208,431.298,161.737z
		 M953.227,150.557c-2-3.443-4.094-6.887-6.225-10.238l1.688-1.073c2.145,3.374,4.252,6.841,6.266,10.307L953.227,150.557z
		 M443.312,140.93l-1.689-1.069c2.145-3.392,4.389-6.786,6.668-10.087l1.645,1.136C447.671,134.189,445.444,137.56,443.312,140.93z
		 M940.368,130.335c-2.268-3.269-4.633-6.537-7.029-9.71l1.596-1.205c2.412,3.195,4.795,6.484,7.076,9.776L940.368,130.335z
		 M456.955,121.166l-1.598-1.201c2.41-3.208,4.917-6.409,7.451-9.516l1.551,1.265C461.84,114.799,459.349,117.979,456.955,121.166z
		 M925.924,111.201c-2.523-3.078-5.145-6.146-7.789-9.121l1.494-1.329c2.664,2.995,5.301,6.084,7.842,9.183L925.924,111.201z
		 M472.133,102.567l-1.497-1.325c2.655-3,5.41-5.989,8.188-8.885l1.443,1.385C477.507,96.618,474.771,99.587,472.133,102.567
		L472.133,102.567z M909.989,93.275c-2.768-2.872-5.627-5.722-8.498-8.473l1.385-1.444c2.889,2.77,5.768,5.639,8.553,8.53
		L909.989,93.275z M488.744,85.25l-1.387-1.441c2.887-2.777,5.87-5.535,8.868-8.198l1.328,1.495
		C494.575,79.751,491.611,82.492,488.744,85.25z M892.663,76.673c-2.988-2.642-6.068-5.256-9.15-7.77l1.264-1.55
		c3.104,2.53,6.203,5.162,9.211,7.822L892.663,76.673z M506.679,69.323l-1.268-1.547c3.104-2.542,6.297-5.051,9.49-7.459
		l1.205,1.597C512.933,64.306,509.761,66.799,506.679,69.323z M874.053,61.506c-3.191-2.395-6.471-4.754-9.748-7.014l1.135-1.646
		c3.299,2.275,6.602,4.65,9.814,7.061L874.053,61.506z M525.822,54.888l-1.139-1.644c3.297-2.285,6.679-4.529,10.053-6.672
		l1.072,1.688C532.457,50.389,529.097,52.618,525.822,54.888L525.822,54.888z M854.282,47.873c-3.373-2.13-6.832-4.219-10.285-6.21
		l1-1.732c3.475,2.004,6.957,4.107,10.354,6.251L854.282,47.873z M546.049,42.042l-1.003-1.73c3.457-2.005,7.008-3.97,10.549-5.839
		l0.934,1.769C553.01,38.098,549.484,40.05,546.049,42.042z M833.469,35.871c-3.533-1.851-7.152-3.655-10.758-5.362l0.855-1.808
		c3.631,1.719,7.275,3.535,10.83,5.398L833.469,35.871z M567.23,30.871l-0.86-1.806c3.606-1.719,7.3-3.39,10.979-4.966l0.787,1.838
		C574.482,27.503,570.812,29.163,567.23,30.871L567.23,30.871z M811.741,25.585c-3.676-1.561-7.432-3.066-11.164-4.476l0.707-1.871
		c3.756,1.418,7.539,2.935,11.238,4.506L811.741,25.585z M589.229,21.45l-0.712-1.869c3.742-1.427,7.568-2.797,11.371-4.073
		l0.637,1.896C596.747,18.672,592.947,20.033,589.229,21.45z M789.236,17.09c-3.779-1.253-7.636-2.446-11.463-3.545l0.553-1.922
		c3.853,1.106,7.734,2.307,11.539,3.569L789.236,17.09z M611.976,13.82l-0.559-1.92c3.846-1.119,7.771-2.175,11.665-3.138
		l0.48,1.941C619.695,11.66,615.796,12.709,611.976,13.82z M766.176,10.468c-3.861-0.942-7.803-1.818-11.713-2.605l0.395-1.961
		c3.937,0.792,7.904,1.675,11.791,2.623L766.176,10.468z M635.265,8.06l-0.4-1.959c3.92-0.803,7.918-1.537,11.88-2.183l0.322,1.974
		C643.13,6.534,639.16,7.263,635.265,8.06z M742.656,5.734c-3.933-0.627-7.932-1.183-11.885-1.65l0.235-1.986
		c3.979,0.471,8.005,1.03,11.964,1.662L742.656,5.734z M658.945,4.201l-0.242-1.985c3.979-0.484,8.021-0.895,12.017-1.219
		l0.162,1.993C666.913,3.313,662.896,3.72,658.945,4.201z M718.831,2.912c-3.965-0.309-7.995-0.542-11.979-0.693l0.076-1.999
		c4.01,0.152,8.066,0.387,12.058,0.698L718.831,2.912z M682.859,2.257l-0.082-1.998c3.998-0.165,8.062-0.252,12.076-0.259l0.002,2
		C690.869,2.007,686.832,2.093,682.859,2.257z"/>
	<path fill="#002D40" d="M1034.327,205.041v-54.44c-34.193-7.853-63.525-29.687-80.859-60.189l-0.002,0.001
		c-4.113,3.05-9.1,4.691-14.219,4.68h-43.229C919.485,153.583,972.049,195.37,1034.327,205.041z"/>
	<path fill="#002D40" d="M1034.327,147.481V95.183c0.004-16.083-13.029-29.125-29.113-29.13c-0.006,0-0.012,0-0.018,0h-41.971v5.05
		c0.01,6.545-2.664,12.809-7.398,17.329C972.592,118.22,1001.057,139.633,1034.327,147.481z"/>
	<path fill="#002D40" d="M832.438,95.093h-27.033c-13.246-0.004-23.98-10.744-23.979-23.99v-5.05h-39.381
		c-16.086-0.001-29.128,13.038-29.13,29.125c0,0.001,0,0.003,0,0.005v648.2c-0.017,16.061,12.989,29.094,29.048,29.11
		c0.027,0,0.055,0,0.082,0h263.15c1.199,0.003,2.398-0.07,3.59-0.22c14.578-1.818,25.523-14.2,25.541-28.891V266.211
		C938.618,255.121,858.868,186.832,832.438,95.093z"/>
	<path fill="#002D40" d="M892.737,95.093h-57.141c26.301,90.039,104.68,157.028,198.73,168.068v-55.02
		C970.366,198.361,916.434,155.301,892.737,95.093z"/>
	<path opacity="0.1" enable-background="new    " d="M808.206,762.473c0.725-0.721,17.928-18.143,32.51-59.48
		c13.377-37.925,26.877-104.062,15.213-203.762c-22.102-188.876,91.227-309.247,92.377-310.441l-3.355-3.221
		c-0.291,0.303-29.43,30.933-55.354,84.706c-34.316,71.305-47.598,150.914-38.287,229.497
		c22.063,188.554-45.699,258.719-46.385,259.406L808.206,762.473z"/>
	<circle opacity="0.1" enable-background="new    " cx="983.104" cy="155.403" r="30.222"/>
	<circle opacity="0.1" enable-background="new    " cx="864.038" cy="241.199" r="30.222"/>
	<circle opacity="0.1" enable-background="new    " cx="909.629" cy="328.909" r="30.222"/>
	<circle opacity="0.1" enable-background="new    " cx="817.954" cy="371.139" r="30.222"/>
	<circle opacity="0.1" enable-background="new    " cx="894.165" cy="490.256" r="30.222"/>
	<path opacity="0.1" enable-background="new    " d="M790.204,759.223c0,0,47.006-65.102-27.839-140.811L790.204,759.223z"/>
	<path opacity="0.1" enable-background="new    " d="M826.631,766.728c0,0,32.127-73.591,135.385-47.681L826.631,766.728z"/>
	<path fill="#F2F2F2" d="M824.659,399.963c-23.527-34.971-14.248-82.392,20.721-105.917c34.971-23.526,82.393-14.249,105.918,20.722
		c23.525,34.971,14.248,82.392-20.723,105.917c-20.809,13.999-47.166,16.88-70.508,7.708c-3.678,13.128-17.303,20.788-30.43,17.11
		c-13.129-3.678-20.789-17.302-17.111-30.43C814.342,408.593,818.723,403.135,824.659,399.963z"/>
	<path fill="#F56A79" d="M904.155,330.071c-1.816-1.049-8.701,7.363-16.301,19.607c-7.6-12.244-14.482-20.656-16.301-19.607
		c-2.018,1.165,2.949,13.585,11.201,28.232c-8.252,14.647-13.219,27.067-11.201,28.232c1.818,1.049,8.701-7.363,16.301-19.606
		c7.6,12.243,14.484,20.655,16.301,19.606c2.018-1.165-2.949-13.585-11.201-28.232C901.206,343.656,906.172,331.236,904.155,330.071
		z"/>
	<path fill="#A0616A" d="M548.504,459.653c0,0-8.135,34.862-1.162,34.862c6.972,0,20.917-16.27,20.917-16.27v-9.297L548.504,459.653
		z"/>
	<polygon fill="#D0CDE1" points="565.355,428.858 544.437,461.396 559.543,461.396 	"/>
	<rect x="552.572" y="712.406" fill="#A0616A" width="27.89" height="23.241"/>
	<polygon fill="#A0616A" points="642.052,708.92 647.863,735.648 676.915,728.675 669.941,705.434 	"/>
	<path fill="#2F2E41" d="M554.896,468.369c0,0-9.297,4.647-10.459,25.565c-1.162,20.917,3.486,75.535,3.486,75.535
		s-4.648,24.404,0,46.483c4.648,22.08-4.648,102.264,1.162,102.264s36.024,3.486,37.187,0s2.324-55.78,2.324-55.78
		s9.296-26.728,0-42.997c0,0,20.917,17.432,20.917,22.08c0,4.647,22.08,76.697,32.539,77.859s39.511-1.162,33.7-11.621
		s-19.755-58.104-19.755-58.104s-10.459-34.862-29.053-49.97l9.297-74.373c0,0,19.756-49.97,8.135-56.941
		C632.755,461.396,554.896,468.369,554.896,468.369z"/>
	<circle fill="#A0616A" cx="589.758" cy="248.735" r="30.214"/>
	<path fill="#A0616A" d="M574.652,267.328c0,0,11.62,38.349,8.134,42.997s37.187-25.566,37.187-25.566s-15.107-10.458-9.297-25.566
		L574.652,267.328z"/>
	<path fill="#D0CDE1" d="M623.458,281.273c0,0-13.945,4.648-20.918,12.783c-6.972,8.135-23.241,9.297-23.241,9.297
		s-14.382,8.099-19.755,22.08c-5.727,14.899-2.398,35.876,0,40.673c4.648,9.297,4.648,32.538,4.648,32.538l-5.811,53.456
		c0,0-20.918,19.755-4.648,22.079s45.32-1.162,62.752,0s37.188,3.486,31.377-8.134c-5.811-11.621-12.783-19.756-5.811-42.998
		c5.456-18.187,5.219-86.187,4.858-114.902c-0.101-8.019-4.351-15.413-11.228-19.537L623.458,281.273z"/>
	<path fill="#A0616A" d="M578.137,459.072c0,0-5.287,11.641-5.81,18.593c-4.068,54.037,25.564,0,25.564,0v-9.296L578.137,459.072z"
		/>
	<path fill="#2F2E41" d="M659.484,726.352c0,0-17.432-12.783-17.432-5.811s-19.756,34.862-19.756,34.862
		s-32.538,23.241-5.811,23.241c26.729,0,38.35-4.647,38.35-4.647l27.889-18.594c0,0,6.973-8.135,4.648-17.432
		c-2.324-9.296-10.458-22.079-10.458-22.079S667.618,728.676,659.484,726.352z"/>
	<path fill="#2F2E41" d="M557.22,729.838c0,0-2.324-11.621-10.459-5.811s-30.215,23.241-30.215,23.241s-40.672,9.297-15.106,20.918
		c25.565,11.62,83.67-4.648,83.67-4.648s2.324-37.187,0-36.024S558.382,732.161,557.22,729.838z"/>
	<polygon opacity="0.1" enable-background="new    " points="606.609,317.879 610.095,388.766 576.314,457.185 570.583,455.005 
		605.447,391.09 	"/>
	<path fill="#D0CDE1" d="M633.917,296.38l8.715-1.743c0,0,26.147,19.174,18.014,57.523c-8.135,38.349-44.16,96.453-44.16,96.453
		s-8.135,10.459-10.459,12.783s-6.973,0-4.648,3.486s-3.486,5.81-3.486,5.81s-25.564,0-23.24-9.296
		c2.323-9.297,41.834-75.536,41.834-75.536l-5.811-61.59C610.675,324.271,606.027,294.056,633.917,296.38z"/>
	<polygon opacity="0.1" enable-background="new    " points="644.958,403.873 644.958,395.738 605.447,460.815 	"/>
	<path fill="#2F2E41" d="M568.319,220.746l-4.995-2c0,0,10.444-11.498,24.975-10.499l-4.086-4.5c0,0,9.989-3.999,19.07,6.499
		c4.775,5.519,10.299,12.006,13.742,19.313h5.35l-2.233,4.916l7.813,4.916l-8.02-0.883c0.76,4.244,0.5,8.608-0.759,12.732
		l0.215,3.885c0,0-9.296-14.384-9.296-16.384v5c0,0-4.996-4.5-4.996-7.499l-2.725,3.5l-1.361-5.499l-16.801,5.499l2.724-4.499
		l-10.444,1.5l4.088-5.499c0,0-11.807,6.499-12.261,11.998s-6.356,12.498-6.356,12.498l-2.725-4.999
		C559.238,250.741,555.15,228.245,568.319,220.746z"/>
</g>
</svg>
