<svg width="512" height="512" xmlns="http://www.w3.org/2000/svg">

 <g>
  <title>background</title>
  <rect fill="none" id="canvas_background" height="402" width="582" y="-1" x="-1"/>
 </g>
 <g>
  <title>Layer 1</title>
  <path id="svg_1" fill-rule="evenodd" clip-rule="evenodd" fill="#f56a79" d="m434.478,16l-356.959,0c-33.801,0 -61.519,27.719 -61.519,61.521l0,356.957c0,33.804 27.718,61.522 61.519,61.522l356.959,0c33.803,0 61.522,-27.718 61.522,-61.521l0,-356.958c0,-33.802 -27.719,-61.521 -61.522,-61.521zm-107.275,214.875l-2.297,25.125l-47.906,0c0,72 0,160 0,160l-64,0c0,0 0,-87 0,-160l-32,0l0,-25.368l0,-38.632l32,0l0,-29.038c0,-26.212 12.524,-67.166 67.461,-67.166l49.539,0.225l0,54.979c0,0 -30.163,0 -36.003,0c-5.848,0 -13.997,2.812 -13.997,15.284l0,25.716l50.743,0l-3.54,38.875z"/>
 </g>
</svg>