<svg xmlns="http://www.w3.org/2000/svg" width="494.501" height="311.72" viewBox="0 0 494.501 311.72"><defs><style>.a{fill:#002d40;}.b{fill:#3f3d56;}.c{fill:#e6e8ec;}.d{fill:#f56a79;}.e,.i{fill:#fff;}.e{opacity:0.3;}.f{fill:#ffb8b8;}.g{fill:#2f2e41;}.h{fill:#f2f2f2;}</style></defs><g transform="translate(-1279 -186.629)"><g transform="translate(-1 -10)"><g transform="translate(1280 196.629)"><path class="a" d="M584.8,661.134q-19.559-3.062-37.611-5.209l4.634-9.269c-1.609-.536-8.579,4.826-8.579,4.826l5.9-26.81c-8.043,1.072-11.8,28.419-11.8,28.419l-9.115-9.115,4.487,10.32a831.038,831.038,0,0,0-95.318-4.8l3.967-7.933c-1.609-.536-8.579,4.826-8.579,4.826l5.9-26.81c-8.043,1.072-11.8,28.419-11.8,28.419l-9.115-9.115,4.753,10.931a535.046,535.046,0,0,0-54.7,4.406c3.958-12.33,17.78-24.184,17.78-24.184-10.628,3.307-16.157,8.693-19.019,13.686A215.318,215.318,0,0,1,378.1,569.175s-21.448,48.258-18.231,80.43l.408,5.715c-18.659,2.911-28.023,5.813-28.023,5.813Z" transform="translate(-230.377 -349.413)"/><path class="b" d="M889.356,605.68a6.434,6.434,0,1,1,6.434-6.434A6.434,6.434,0,0,1,889.356,605.68Zm0-11.8a5.362,5.362,0,1,0,5.362,5.362A5.362,5.362,0,0,0,889.356,593.883Z" transform="translate(-472.513 -360.375)"/><path class="b" d="M981.594,729.945H971.009V719.36h10.585Zm-9.771-.814h8.957v-8.957h-8.957Z" transform="translate(-513.368 -419.068)"/><path class="b" d="M316.149,727.241l-7.22-7.741,7.741-7.22,7.22,7.741Zm-6.069-7.7,6.109,6.55,6.55-6.109-6.109-6.549Z" transform="translate(-225.207 -415.785)"/><rect class="b" width="482.88" height="1.072" transform="translate(11.621 310.279)"/><path class="a" d="M578.305,231.047v35.218a1.231,1.231,0,0,1-1.228,1.228H576.2V450.954A19.143,19.143,0,0,1,557.062,470.1H442.426a19.139,19.139,0,0,1-19.137-19.141V273.927h-.633a.867.867,0,0,1-.869-.863V253.021a.869.869,0,0,1,.869-.869h.633V244.6h-.638a.91.91,0,0,1-.906-.912v-19.77a.908.908,0,0,1,.906-.906h.638V212.709h-.649a.8.8,0,0,1-.8-.8V201.117a.808.808,0,0,1,.8-.81h.649V178.462a19.138,19.138,0,0,1,19.136-19.137H557.061A19.142,19.142,0,0,1,576.2,178.462v51.357h.874A1.231,1.231,0,0,1,578.305,231.047Z" transform="translate(-271.334 -159.325)"/><rect class="c" width="21.353" height="4.336" rx="2.168" transform="translate(214.113 9.816)"/><circle class="c" cx="2.459" cy="2.459" r="2.459" transform="translate(239.537 9.525)"/><path class="d" d="M576.784,191.57V461.864A12.145,12.145,0,0,1,564.639,474H454.9a12.11,12.11,0,0,1-5.609-1.367,11.351,11.351,0,0,1-1.18-.7,12.155,12.155,0,0,1-5.357-10.075V191.57a12.144,12.144,0,0,1,12.145-12.145h16.423v2.107a10,10,0,0,0,10,10h55.808a10,10,0,0,0,10-10v-2.107h17.5A12.141,12.141,0,0,1,576.784,191.57Z" transform="translate(-280.996 -168.647)"/><path class="e" d="M576.784,611.794v38.692a12.145,12.145,0,0,1-12.145,12.139H454.9a12.11,12.11,0,0,1-5.609-1.367,11.361,11.361,0,0,1-1.18-.7,12.155,12.155,0,0,1-5.357-10.075V611.81A100.254,100.254,0,0,1,576.784,611.794Z" transform="translate(-280.996 -357.27)"/><path class="e" d="M575.912,691.339a12.016,12.016,0,0,1-5.619,1.378H460.559a12.109,12.109,0,0,1-5.609-1.367,65.5,65.5,0,0,1,120.964-.005Z" transform="translate(-286.606 -387.36)"/><path class="f" d="M710.519,420.725v15.632s1.25,17.508,8.129,26.261c0,0,11.255,15.944,12.818,12.505L729.54,463.8l-6.516-6.186-3.439-19.383-.938-17.508Z" transform="translate(-400.463 -280.562)"/><path class="f" d="M671.012,524.941v11.567l-9.379,3.439V526.5Z" transform="translate(-289.279 -243.467)"/><path class="f" d="M639.772,522.609l6.253,14.068-8.753,3.752L635.4,526.673Z" transform="translate(-277.762 -242.385)"/><path class="g" d="M790.758,473.294s12.505,112.861,7.816,113.174-13.756,6.253-13.756,2.188-7.191-56.9-7.191-56.9l-6.878-27.2v37.516l7.191,42.518s-6.878,9.066-11.88,3.752l-10.63-41.581s-14.068-63.153-13.443-68.155C741.987,478.609,774.188,451.1,790.758,473.294Z" transform="translate(-412.784 -300.929)"/><path class="g" d="M824.24,704.381s2.5-5.315,8.129-1.876l4.69,5.627s12.091,10.013,3.511,12.157c-8.843,2.211-14.141-.141-14.141-.141a6.837,6.837,0,0,0-2.814-.938c-1.25,0-4.064-2.188-4.064-2.814s.938-11.7.938-11.7a1.971,1.971,0,0,1,2.188.313C823.615,705.944,824.24,704.381,824.24,704.381Z" transform="translate(-447.933 -410.714)"/><path class="g" d="M788.217,701.854s5.94-4.69,8.754.625c0,0,1.772.625,1.98,0s1.772-.938,1.772,2.5,1.7,12.016.134,12.329-3.126,1.251-2.814,2.5-1.7,1.427-8.888,1.114-7.5-3.126-7.5-3.126,0-4.064,1.876-6.253S788.217,701.854,788.217,701.854Z" transform="translate(-431.556 -410.063)"/><path class="f" d="M756.644,321.605s-1.563,11.568,8.441,15.632-22.2,17.508-25.323,9.692.625-10.317.625-10.317,3.126-3.126.313-11.568Z" transform="translate(-412.417 -234.59)"/><circle class="f" cx="13.756" cy="13.756" r="13.756" transform="translate(320.141 67.632)"/><path class="h" d="M759.873,357.755s-9.379,5-18.445,1.251-8.754,12.505-8.754,12.505l4.69,12.193,32.514-3.126-2.189-18.758Z" transform="translate(-409.55 -251.356)"/><path class="b" d="M743.857,337.8a11.349,11.349,0,0,1,7.786,6.008L766.65,348.5l3.752,5.315-4.377,38.454s8.129,7.816,8.129,12.193,10,19.383,5,17.508-14.069-8.441-14.069-8.441-22.822.938-30.013,7.191-10,4.377-10,4.377-7.5-32.514-7.816-37.516-9.066-35.015-9.066-35.015l15.632-8.754,3.981-4.518,11.025,17.648,10-12.193S743.887,340.863,743.857,337.8Z" transform="translate(-397.521 -242.103)"/><path class="f" d="M824.848,412.562l1.876,10s8.441,31.264,7.191,41.893c0,0,.938,23.76-4.377,20.947s-2.5-20.009-2.5-20.009l-7.5-30.951-4.064-18.133Z" transform="translate(-446.371 -276.776)"/><path class="b" d="M815.95,364.168l3.126,1.876s11.88,24.7,9.066,26.574-15.006,5.94-15.006,5.94Z" transform="translate(-445.475 -254.331)"/><path class="b" d="M554.088,205.875l-7.347-.157-1.719,2.97,2.188,30.326,11.255,2.5Z" transform="translate(-238.166 -95.412)"/><path class="g" d="M748.95,282.492l2.479-.9s-5.184-5.184-12.4-4.733l2.029-2.029s-4.959-1.8-9.467,2.93a40.273,40.273,0,0,0-6.821,8.708h-2.655l1.108,2.216-3.879,2.216,3.981-.4a11.186,11.186,0,0,0,.377,5.74l.9,2.479s3.607-7.213,3.607-8.115v2.254s2.479-2.029,2.479-3.381l1.352,1.578.676-2.479,8.34,2.479-1.352-2.029,5.184.676-2.029-2.479s5.861,2.93,6.086,5.41a20.919,20.919,0,0,0,1.773,5.711l1.876-2.188S755.487,285.874,748.95,282.492Z" transform="translate(-403.866 -212.739)"/><ellipse class="f" cx="1.094" cy="2.814" rx="1.094" ry="2.814" transform="translate(344.705 78.73)"/><path class="a" d="M198.284,682.908c6.664,12.359,20.808,17.664,20.808,17.664s3.339-14.732-3.325-27.091-20.808-17.664-20.808-17.664S191.62,670.549,198.284,682.908Z" transform="translate(-175.96 -389.597)"/><path class="d" d="M187.155,694.375c12.032,7.239,16.665,21.616,16.665,21.616s-14.873,2.642-26.9-4.6-16.666-21.616-16.666-21.616S175.123,687.136,187.155,694.375Z" transform="translate(-160.25 -405.13)"/></g></g><g transform="translate(1477.172 277.816)"><g transform="translate(0 0)"><path class="i" d="M100.147,667.368Q102.972,653,111.32,645.821t21.363-7.182a49.442,49.442,0,0,1,8.962.674,64.5,64.5,0,0,1,7.118,1.78l-2.454,9.823a39.868,39.868,0,0,0-6.444-1.781,37.776,37.776,0,0,0-7.182-.676,22.6,22.6,0,0,0-8.164,1.351,17.555,17.555,0,0,0-6.017,3.806,19.542,19.542,0,0,0-4.114,5.955,35.478,35.478,0,0,0-2.454,7.8h28.6l-1.72,8.838H110.705q-.124,1.6-.124,3.192t0,3.316q0,1.592,0,3.067t.124,2.823h25.66l-1.72,8.842H111.687q2.087,10.925,7.551,15.222t13.688,4.3a35.354,35.354,0,0,0,8.9-.983,41.41,41.41,0,0,0,6.691-2.332l2.454,9.7a33.887,33.887,0,0,1-7.242,2.332,49.358,49.358,0,0,1-11.419,1.227q-14.361,0-22.219-7.8T99.9,697.445H88.856V688.6H98.922q-.124-1.349-.124-2.823t0-3.067q0-1.72,0-3.316t.124-3.192H88.856v-8.838Z" transform="translate(-88.856 -638.639)"/></g></g></g></svg>